<svg width="370" height="300" viewBox="0 0 370 300" fill="none" xmlns="http://www.w3.org/2000/svg">
<path d="M44.7855 0H54.2805C55.0232 0.517752 56.5861 0.380077 57.5705 0.566182C65.0407 1.9868 72.1159 4.88021 76.8911 11.0632C83.4679 19.4076 79.9429 30.7424 77.9569 40.0785C77.3662 42.8548 76.7253 45.7566 76.0398 48.5191C75.5709 50.3854 74.8968 52.2699 74.4397 54.1309C71.1009 67.7279 66.9516 81.0521 61.7616 94.0587C61.3453 95.1023 60.5335 96.4903 60.381 97.5391L60.6544 97.6708C64.0723 97.1494 74.9529 88.4567 77.7625 85.8798C95.8206 69.3168 111.033 49.4363 123.069 28.1114C124.486 25.6004 126.787 19.9477 128.946 18.6338C140.127 22.1335 148.885 43.4058 147 54.5158C146.587 57.0206 145.707 59.4252 144.406 61.6045C141.581 66.305 136.036 72.1747 132.234 76.1403C119.524 89.3965 105.86 102.163 90.4197 112.2C88.0073 113.768 85.521 115.018 83.1446 116.694C86.5128 122.06 90.3614 127.195 94.3552 132.109C127.309 172.65 190.354 210.242 238.756 228.976C253.962 234.862 269.82 239.771 285.84 242.854C290.68 243.784 295.438 244.686 300.351 245.187C319.942 247.184 340.661 247.148 358.133 236.738C361.298 234.853 364.081 232.627 366.927 230.306C367.557 229.794 368.774 228.58 369.634 228.669C369.672 228.73 369.712 228.792 369.75 228.854C370.821 232.865 368.153 243.208 367.285 246.725C362.801 264.921 353.62 282.148 337.029 291.864C329.892 296.042 321.652 298.405 313.495 299.748C310.53 300.097 307.388 299.917 304.434 299.978C293.703 300.2 283.071 298.701 272.689 295.773C229.975 283.736 190.491 258.629 155.727 231.647C149.381 226.768 143.137 221.757 136.998 216.619C133.849 213.94 130.778 211.058 127.667 208.31C106.834 189.912 86.9429 169.736 70.3878 147.357C67.7201 143.75 64.9269 139.658 62.6131 135.846C60.9109 133.041 59.3905 130.023 57.7248 127.161C55.7156 127.223 49.9868 128.808 47.8496 129.423C46.3328 131.866 45.231 136.227 44.1728 139.184C40.7192 148.834 37.0647 158.924 37.1915 169.308C37.2127 171.046 37.8672 174.049 38.2372 175.804C30.381 179.529 18.466 181.379 10.2227 178.414C2.76962 175.733 -0.428722 169.057 0.0458297 161.505C0.686772 158.49 0.866642 154.438 1.6676 151.528C4.73216 140.393 9.20727 128.925 13.3493 118.205L23.9301 90.1557C26.8991 82.0627 29.7011 73.9093 32.3342 65.7007C34.0569 60.4357 36.0074 55.1897 37.306 49.7826C40.3264 37.2073 43.8068 24.181 42.732 11.1387C42.5618 9.07043 40.3271 2.15187 40.6964 1.23046C41.6909 0.252751 43.1745 0.437608 44.6227 0.045659L44.7855 0Z" fill="#1F1D1E"/>
</svg>
