<svg width="257" height="300" viewBox="0 0 257 300" fill="none" xmlns="http://www.w3.org/2000/svg">
<path d="M51.6271 0.0211178C54.9128 0.0237135 58.2798 -0.137772 61.5186 0.393478C75.5643 2.69723 92.2843 7.54729 98.3774 21.877C99.6701 24.9171 99.958 30.3844 100.011 33.5751C100.299 50.9911 95.4885 67.8625 90.23 84.2931C88.9931 88.1632 87.9603 92.0457 86.6067 95.9095C84.7642 101.203 82.8294 106.463 80.8031 111.689C80.1421 113.434 77.0366 120.423 77.6288 121.859C79.1436 121.998 86.7533 116.207 88.3425 115.003C109.902 98.6622 129.426 75.8995 144.265 53.3622C149.262 45.7994 153.877 37.9914 158.092 29.9678C158.911 28.443 161.57 22.9242 162.771 22.1574C167.882 21.4786 177.105 33.4139 179.473 37.3949C183.648 44.4168 186.86 52.2936 188.266 60.375C188.622 62.4178 188.277 65.2526 188.428 67.3618C189.659 78.3865 181.79 85.9549 174.646 93.7174C160.862 108.541 145.669 121.993 129.28 133.882C124.309 137.559 119.352 141.351 114.022 144.501C115.175 149.969 118.458 155.559 121.26 160.373C139.75 192.138 182.268 234.708 215.173 251.311C218.482 252.98 221.754 255.28 225.362 256.236C228.736 257.553 233.225 259.372 236.637 260.272C242.199 261.741 251.321 261.703 257 260.826C253.872 276.297 241.133 288.828 227.298 295.23C212.85 301.766 197.517 301.127 182.8 296.087C138.355 280.861 111.926 236.888 90.4054 197.773C83.8456 186.102 77.6614 174.225 71.8621 162.16C71.7551 161.934 70.8782 160.157 70.8615 160.149C68.8409 159.093 62.1733 161.628 60.8367 162.265C58.7403 165.964 57.4027 170.629 55.9853 174.616C50.9991 188.639 44.9776 205.459 48.096 220.4C40.3448 225.46 20.0225 227.738 11.1317 223.017C-8.87812 212.391 3.28247 188.01 7.87817 172.054C8.36917 170.349 9.50026 168.442 10.0242 166.726C11.3695 162.321 13.185 158.193 14.8488 153.925C23.1503 132.993 30.8689 111.835 37.9955 90.4751C40.4557 83.229 43.9706 74.6165 45.7522 67.2498C47.5248 59.9185 49.8669 52.106 51.3759 44.8713C53.0109 37.033 53.7895 28.0292 55.1047 20.0574C55.61 16.1011 52.5331 4.71997 51.2352 0.526649L51.6271 0.0211178Z" fill="#1F1D1E"/>
</svg>
